<svg xmlns="http://www.w3.org/2000/svg" width="360" height="360" viewBox="0 0 360 360">
  <rect width="360" height="360" fill="none" />
  <g fill="#9fb3ff" fill-opacity="0.55">
    <circle cx="24" cy="40" r="1.4" />
    <circle cx="88" cy="18" r="1.2" />
    <circle cx="140" cy="70" r="1.6" />
    <circle cx="200" cy="30" r="1.1" />
    <circle cx="300" cy="52" r="1.5" />
    <circle cx="330" cy="96" r="1.3" />
    <circle cx="40" cy="120" r="1.1" />
    <circle cx="120" cy="150" r="1.4" />
    <circle cx="210" cy="130" r="1.2" />
    <circle cx="280" cy="140" r="1.7" />
    <circle cx="320" cy="170" r="1.2" />
    <circle cx="50" cy="200" r="1.6" />
    <circle cx="90" cy="250" r="1.1" />
    <circle cx="160" cy="210" r="1.3" />
    <circle cx="220" cy="250" r="1.4" />
    <circle cx="300" cy="230" r="1.1" />
    <circle cx="340" cy="260" r="1.5" />
    <circle cx="60" cy="300" r="1.2" />
    <circle cx="140" cy="320" r="1.6" />
    <circle cx="240" cy="310" r="1.3" />
    <circle cx="310" cy="320" r="1.1" />
  </g>
  <g fill="#ffffff" fill-opacity="0.25">
    <circle cx="190" cy="180" r="0.9" />
    <circle cx="250" cy="90" r="0.7" />
    <circle cx="110" cy="100" r="0.8" />
    <circle cx="70" cy="170" r="0.6" />
    <circle cx="200" cy="280" r="0.8" />
    <circle cx="280" cy="300" r="0.7" />
  </g>
</svg>
